<svg xmlns="http://www.w3.org/2000/svg" xmlns:xlink="http://www.w3.org/1999/xlink" width="40" zoomAndPan="magnify" viewBox="0 0 30 30.000001" height="40" preserveAspectRatio="xMidYMid meet" version="1.0"><defs><g/><clipPath id="id1"><path d="M 0.484375 8 L 6 8 L 6 19 L 0.484375 19 Z M 0.484375 8 " clip-rule="nonzero"/></clipPath></defs><g fill="#004aad" fill-opacity="1"><g transform="translate(5.171616, 16.566128)"><g><path d="M 3.007812 0.195312 C 4.734375 0.195312 6.09375 -0.46875 6.09375 -2.28125 C 6.09375 -3.382812 5.355469 -3.96875 3.929688 -4.410156 L 3.308594 -4.601562 C 2.59375 -4.824219 2.527344 -4.941406 2.527344 -5.214844 C 2.527344 -5.328125 2.566406 -5.445312 2.554688 -5.445312 C 2.789062 -5.511719 3.085938 -5.550781 3.398438 -5.550781 C 4.097656 -5.550781 4.757812 -5.40625 5.265625 -5.136719 C 5.574219 -5.5625 5.808594 -6.238281 5.898438 -6.78125 C 5.277344 -7.144531 4.472656 -7.328125 3.539062 -7.328125 C 1.621094 -7.328125 0.46875 -6.378906 0.46875 -4.890625 C 0.46875 -3.722656 1.21875 -3.164062 2.632812 -2.722656 L 3.253906 -2.527344 C 3.96875 -2.308594 4.03125 -2.191406 4.03125 -1.917969 C 4.03125 -1.761719 3.992188 -1.671875 4.007812 -1.671875 C 3.824219 -1.609375 3.515625 -1.582031 3.136719 -1.582031 C 2.503906 -1.582031 1.425781 -1.777344 0.933594 -2.152344 C 0.648438 -1.761719 0.402344 -0.972656 0.363281 -0.441406 C 0.867188 -0.0664062 1.867188 0.195312 3.007812 0.195312 Z M 3.007812 0.195312 "/></g></g></g><g fill="#004aad" fill-opacity="1"><g transform="translate(11.663874, 16.566128)"><g><path d="M 3.957031 -5.121094 C 3.800781 -3.773438 3.578125 -2.828125 3.152344 -1.726562 L 2.179688 -5.109375 C 1.726562 -5.160156 0.714844 -5.03125 0.105469 -4.796875 L 1.777344 0.0117188 C 1.308594 0.402344 0.753906 0.699219 0.0273438 0.945312 C 0.207031 1.582031 0.6875 2.125 1.207031 2.375 C 2.347656 2.023438 3.554688 1.0625 4.371094 -0.453125 C 5.019531 -1.660156 5.589844 -3.460938 5.914062 -4.8125 C 5.472656 -4.980469 4.539062 -5.136719 3.957031 -5.121094 Z M 3.957031 -5.121094 "/></g></g></g><g clip-path="url(#id1)"><g fill="#004aad" fill-opacity="1"><g transform="translate(-0.831412, 19.420594)"><g><path d="M 5.6875 -1.1875 L 4.625 -0.609375 L 3.84375 -0.796875 L 1.140625 -5 L 0.9375 -5.734375 L 1.34375 -6.484375 L 5.015625 -10.921875 L 5.859375 -11.125 L 6.734375 -10.53125 L 3.15625 -5.734375 Z M 5.6875 -1.1875 "/></g></g></g></g><g fill="#004aad" fill-opacity="1"><g transform="translate(15.499781, 19.539062)"><g><path d="M -0.15625 1.96875 L 5.765625 -13.234375 L 7.4375 -13.234375 L 7.625 -13 L 1.921875 2.203125 L 0.046875 2.203125 Z M -0.15625 1.96875 "/></g></g></g><g fill="#004aad" fill-opacity="1"><g transform="translate(21.451523, 19.539062)"><g><path d="M 1.515625 -0.609375 L 0.640625 -1.1875 L 4.421875 -5.734375 L 2.171875 -10.53125 L 3.234375 -11.125 L 4.015625 -10.921875 L 6.453125 -6.484375 L 6.640625 -5.734375 L 6.234375 -5 L 2.359375 -0.796875 Z M 1.515625 -0.609375 "/></g></g></g></svg>